<svg width="375" height="812" viewBox="0 0 375 812" fill="none" xmlns="http://www.w3.org/2000/svg">
<g clip-path="url(#clip0_419_49)">
<rect width="375" height="812" rx="20" fill="#F2F2F2"/>
<g filter="url(#filter0_d_419_49)">
<path d="M192 419C99.6 459.8 -41.8333 394.667 -101 357L-69 604.5H415.5C441.167 508.833 480.8 364.1 430 350.5C366.5 333.5 307.5 368 192 419Z" fill="url(#paint0_linear_419_49)"/>
</g>
<g filter="url(#filter1_d_419_49)">
<path d="M138 259C35.7457 201.603 -29.3333 184.667 -58.5 196.5V-32H415.5V191.5C359.333 246.667 244 318.5 138 259Z" fill="url(#paint1_linear_419_49)"/>
</g>
<g filter="url(#filter2_d_419_49)">
<path d="M160 587.5C39.6 550.3 -82.8333 590.667 -129 615.5L-103 844.5H427V538.5C388.167 570.333 280.4 624.7 160 587.5Z" fill="url(#paint2_linear_419_49)"/>
</g>
<g filter="url(#filter3_d_419_49)">
<path d="M181.5 254C120.984 227.646 23.3333 183.167 -10 176L-43.5 396C-14.3333 453 72.5 477 192 437.5C313.855 397.222 350.5 361.5 435 361.5L405.5 176C341.333 219.833 243.5 281 181.5 254Z" fill="#F2F2F2"/>
</g>
<g filter="url(#filter4_d_419_49)">
<path d="M204 250.5C97.2798 228.335 35.5 174 -10 176L-43.5 396C-14.3333 453 72.5 477 192 437.5C313.855 397.221 350.5 361.5 435 361.5L405.5 176C341.333 219.833 269 264 204 250.5Z" fill="#F9F9F9"/>
</g>
<path d="M54.072 321.5H60.792V309.068H81.048V302.78H60.792V294.092H81.816V287.9H54.072V321.5ZM116.396 321.5V297.5H110.444L109.772 300.668C107.324 298.172 103.772 296.78 99.7395 296.78C91.7235 296.78 85.7715 302.204 85.7715 309.548C85.7715 316.796 91.7715 322.22 99.7395 322.22C103.82 322.22 107.324 320.78 109.772 318.332L110.444 321.5H116.396ZM92.4915 309.548C92.4915 305.564 96.1395 302.684 101.18 302.684C106.22 302.684 109.676 305.516 109.676 309.548C109.676 313.532 106.268 316.268 101.18 316.268C96.1395 316.268 92.4915 313.436 92.4915 309.548ZM140.604 296.78C135.468 296.78 131.484 299.468 129.276 303.74L128.556 297.5H122.556V321.5H129.276V314.684C129.276 307.964 133.452 303.884 140.604 303.884V296.78ZM151.495 310.316C151.495 305.996 154.231 302.972 158.263 302.972C162.295 302.972 165.127 305.996 165.127 310.316V321.5H171.847V310.316C171.847 305.996 174.583 302.972 178.615 302.972C182.647 302.972 185.479 305.996 185.479 310.316V321.5H192.199V310.316C192.199 302.3 187.255 296.78 180.343 296.78C175.927 296.78 172.327 299.42 170.455 303.596C168.535 299.372 164.743 296.78 159.991 296.78C156.439 296.78 153.415 298.508 151.399 301.292L150.775 297.5H144.775V321.5H151.495V310.316ZM198.26 321.5H226.004V315.26H204.98V307.772H225.236V301.58H204.98V294.092H226.004V287.9H198.26V321.5ZM260.817 321.5V297.5H254.865L254.193 300.668C251.745 298.172 248.193 296.78 244.161 296.78C236.145 296.78 230.193 302.204 230.193 309.548C230.193 316.796 236.193 322.22 244.161 322.22C248.241 322.22 251.745 320.78 254.193 318.332L254.865 321.5H260.817ZM236.913 309.548C236.913 305.564 240.561 302.684 245.601 302.684C250.641 302.684 254.097 305.516 254.097 309.548C254.097 313.532 250.689 316.268 245.601 316.268C240.561 316.268 236.913 313.436 236.913 309.548ZM289.682 314.684C289.682 304.316 272.834 309.5 272.834 304.364C272.834 302.78 274.754 301.628 277.394 301.628C280.562 301.628 282.29 302.972 282.578 304.892H289.298C288.914 299.9 284.642 296.78 277.442 296.78C270.434 296.78 266.114 300.188 266.114 304.412C266.114 314.06 282.914 309.404 282.914 314.684C282.914 316.22 280.85 317.42 278.114 317.42C274.706 317.42 272.594 316.172 272.21 314.06H265.49C266.018 319.052 270.914 322.22 278.114 322.22C285.122 322.22 289.682 319.004 289.682 314.684ZM321.288 311.18C321.384 310.652 321.384 310.076 321.384 309.548C321.384 301.916 315.24 296.78 307.032 296.78C298.728 296.78 292.584 302.204 292.584 309.548C292.584 316.796 298.776 322.22 307.032 322.22C313.608 322.22 318.744 319.052 320.568 314.156H313.752C312.504 315.884 310.2 316.94 307.32 316.94C303.288 316.94 300.216 314.636 299.496 311.18H321.288ZM299.496 307.82C300.216 304.46 303.144 302.204 307.032 302.204C310.968 302.204 313.8 304.412 314.472 307.82H299.496Z" fill="url(#paint3_linear_419_49)"/>
<path d="M187.417 341.5C185.292 341.5 183.875 342.917 183.875 345.042V353.896C183.875 356.021 185.292 357.437 187.417 357.437C189.542 357.437 190.958 356.021 190.958 353.896V345.042C190.958 342.917 189.542 341.5 187.417 341.5Z" fill="#FCCC1C"/>
<path d="M168.646 363.105C169.354 363.813 170.417 364.167 171.125 364.167C171.834 364.167 172.896 363.813 173.604 363.105C175.021 361.688 175.021 359.563 173.604 358.146L167.229 351.771C165.813 350.355 163.688 350.355 162.271 351.771C160.854 353.188 160.854 355.313 162.271 356.73L168.646 363.105Z" fill="#FCCC1C"/>
<path d="M167.937 376.917C167.937 374.792 166.521 373.375 164.396 373.375H155.542C153.417 373.375 152 374.792 152 376.917C152 379.042 153.417 380.458 155.542 380.458H164.396C166.167 380.458 167.937 379.042 167.937 376.917Z" fill="#FCCC1C"/>
<path d="M168.646 390.73L162.625 396.75C161.208 398.167 161.208 400.292 162.625 401.709C163.333 402.417 164.396 402.771 165.104 402.771C165.812 402.771 166.875 402.417 167.583 401.709L173.604 395.688C175.021 394.271 175.021 392.146 173.604 390.73C172.187 389.313 170.062 389.313 168.646 390.73Z" fill="#FCCC1C"/>
<path d="M187.417 396.396C185.292 396.396 183.875 397.812 183.875 399.937V408.792C183.875 410.917 185.292 412.333 187.417 412.333C189.542 412.333 190.958 410.917 190.958 408.792V399.937C190.958 398.167 189.542 396.396 187.417 396.396Z" fill="#FCCC1C"/>
<path d="M206.188 390.73C204.771 389.313 202.646 389.313 201.229 390.73C199.813 392.146 199.813 394.271 201.229 395.688L207.25 401.709C207.959 402.417 209.021 402.771 209.729 402.771C210.438 402.771 211.5 402.417 212.209 401.709C213.625 400.292 213.625 398.167 212.209 396.75L206.188 390.73Z" fill="#FCCC1C"/>
<path d="M219.292 373.375H210.437C208.312 373.375 206.896 374.792 206.896 376.917C206.896 379.042 208.312 380.458 210.437 380.458H219.292C221.417 380.458 222.833 379.042 222.833 376.917C222.833 374.792 221.417 373.375 219.292 373.375Z" fill="#FCCC1C"/>
<path d="M203.709 364.167C204.771 364.167 205.479 363.813 206.188 363.105L212.209 357.084C213.625 355.667 213.625 353.542 212.209 352.126C210.792 350.709 208.667 350.709 207.25 352.126L201.229 358.147C199.813 359.563 199.813 361.688 201.229 363.105C201.938 363.813 203 364.167 203.709 364.167Z" fill="#FCCC1C"/>
</g>
<defs>
<filter id="filter0_d_419_49" x="-127" y="312.119" width="607.583" height="310.381" filterUnits="userSpaceOnUse" color-interpolation-filters="sRGB">
<feFlood flood-opacity="0" result="BackgroundImageFix"/>
<feColorMatrix in="SourceAlpha" type="matrix" values="0 0 0 0 0 0 0 0 0 0 0 0 0 0 0 0 0 0 127 0" result="hardAlpha"/>
<feOffset dy="-8"/>
<feGaussianBlur stdDeviation="13"/>
<feComposite in2="hardAlpha" operator="out"/>
<feColorMatrix type="matrix" values="0 0 0 0 0 0 0 0 0 0 0 0 0 0 0 0 0 0 0.25 0"/>
<feBlend mode="normal" in2="BackgroundImageFix" result="effect1_dropShadow_419_49"/>
<feBlend mode="normal" in="SourceGraphic" in2="effect1_dropShadow_419_49" result="shape"/>
</filter>
<filter id="filter1_d_419_49" x="-75.5" y="-45" width="508" height="347.389" filterUnits="userSpaceOnUse" color-interpolation-filters="sRGB">
<feFlood flood-opacity="0" result="BackgroundImageFix"/>
<feColorMatrix in="SourceAlpha" type="matrix" values="0 0 0 0 0 0 0 0 0 0 0 0 0 0 0 0 0 0 127 0" result="hardAlpha"/>
<feOffset dy="4"/>
<feGaussianBlur stdDeviation="8.5"/>
<feComposite in2="hardAlpha" operator="out"/>
<feColorMatrix type="matrix" values="0 0 0 0 0 0 0 0 0 0 0 0 0 0 0 0 0 0 0.25 0"/>
<feBlend mode="normal" in2="BackgroundImageFix" result="effect1_dropShadow_419_49"/>
<feBlend mode="normal" in="SourceGraphic" in2="effect1_dropShadow_419_49" result="shape"/>
</filter>
<filter id="filter2_d_419_49" x="-155" y="504.5" width="608" height="358" filterUnits="userSpaceOnUse" color-interpolation-filters="sRGB">
<feFlood flood-opacity="0" result="BackgroundImageFix"/>
<feColorMatrix in="SourceAlpha" type="matrix" values="0 0 0 0 0 0 0 0 0 0 0 0 0 0 0 0 0 0 127 0" result="hardAlpha"/>
<feOffset dy="-8"/>
<feGaussianBlur stdDeviation="13"/>
<feComposite in2="hardAlpha" operator="out"/>
<feColorMatrix type="matrix" values="0 0 0 0 0 0 0 0 0 0 0 0 0 0 0 0 0 0 0.25 0"/>
<feBlend mode="normal" in2="BackgroundImageFix" result="effect1_dropShadow_419_49"/>
<feBlend mode="normal" in="SourceGraphic" in2="effect1_dropShadow_419_49" result="shape"/>
</filter>
<filter id="filter3_d_419_49" x="-68.5" y="159" width="528.5" height="330.967" filterUnits="userSpaceOnUse" color-interpolation-filters="sRGB">
<feFlood flood-opacity="0" result="BackgroundImageFix"/>
<feColorMatrix in="SourceAlpha" type="matrix" values="0 0 0 0 0 0 0 0 0 0 0 0 0 0 0 0 0 0 127 0" result="hardAlpha"/>
<feOffset dy="8"/>
<feGaussianBlur stdDeviation="12.5"/>
<feComposite in2="hardAlpha" operator="out"/>
<feColorMatrix type="matrix" values="0 0 0 0 0 0 0 0 0 0 0 0 0 0 0 0 0 0 0.2 0"/>
<feBlend mode="normal" in2="BackgroundImageFix" result="effect1_dropShadow_419_49"/>
<feBlend mode="normal" in="SourceGraphic" in2="effect1_dropShadow_419_49" result="shape"/>
</filter>
<filter id="filter4_d_419_49" x="-68.5" y="142.946" width="528.5" height="331.021" filterUnits="userSpaceOnUse" color-interpolation-filters="sRGB">
<feFlood flood-opacity="0" result="BackgroundImageFix"/>
<feColorMatrix in="SourceAlpha" type="matrix" values="0 0 0 0 0 0 0 0 0 0 0 0 0 0 0 0 0 0 127 0" result="hardAlpha"/>
<feOffset dy="-8"/>
<feGaussianBlur stdDeviation="12.5"/>
<feComposite in2="hardAlpha" operator="out"/>
<feColorMatrix type="matrix" values="0 0 0 0 0 0 0 0 0 0 0 0 0 0 0 0 0 0 0.2 0"/>
<feBlend mode="normal" in2="BackgroundImageFix" result="effect1_dropShadow_419_49"/>
<feBlend mode="normal" in="SourceGraphic" in2="effect1_dropShadow_419_49" result="shape"/>
</filter>
<linearGradient id="paint0_linear_419_49" x1="176.792" y1="346.119" x2="64.5001" y2="1642" gradientUnits="userSpaceOnUse">
<stop stop-color="#04844C"/>
<stop offset="1" stop-color="#FCCC1C"/>
</linearGradient>
<linearGradient id="paint1_linear_419_49" x1="178" y1="367" x2="178" y2="-1837.5" gradientUnits="userSpaceOnUse">
<stop stop-color="#04844C"/>
<stop offset="1" stop-color="#FCCC1C"/>
</linearGradient>
<linearGradient id="paint2_linear_419_49" x1="149" y1="538.5" x2="88" y2="1958.5" gradientUnits="userSpaceOnUse">
<stop stop-color="#04844C"/>
<stop offset="1" stop-color="#FCCC1C"/>
</linearGradient>
<linearGradient id="paint3_linear_419_49" x1="262.158" y1="255.32" x2="-28.6366" y2="628.461" gradientUnits="userSpaceOnUse">
<stop stop-color="#04844C"/>
<stop offset="1" stop-color="#FCCC1C"/>
</linearGradient>
<clipPath id="clip0_419_49">
<rect width="375" height="812" rx="20" fill="white"/>
</clipPath>
</defs>
</svg>
